<svg width="28" height="28" viewBox="0 0 28 28" fill="none" xmlns="http://www.w3.org/2000/svg">
<path fill-rule="evenodd" clip-rule="evenodd" d="M13.6464 1.35359L26.6464 14.3536L27.3536 13.6465L14.3536 0.646484L13.6464 1.35359ZM23.1464 14.8536L13.1464 4.85359L13.8536 4.14648L23.8536 14.1465L23.1464 14.8536ZM5.85355 6.14648L5.5 5.79293L5.14645 6.14648L1.64645 9.64648L1.5 9.79293V10V15V15.2071L1.64645 15.3536L12.6464 26.3536L12.7929 26.5H13H18H18.2071L18.3536 26.3536L21.8536 22.8536L22.2071 22.5L21.8536 22.1465L17.8536 18.1465L17.5 17.7929L17.1464 18.1465L14.5 20.7929L7.20711 13.5L9.85355 10.8536L10.2071 10.5L9.85355 10.1465L5.85355 6.14648ZM2.5 14.7929V10.2071L5.5 7.20714L8.79289 10.5L6.14645 13.1465L5.79289 13.5L6.14645 13.8536L14.1464 21.8536L14.5 22.2071L14.8536 21.8536L17.5 19.2071L20.7929 22.5L17.7929 25.5H13.2071L2.5 14.7929ZM12.6464 8.35359L19.6464 15.3536L20.3536 14.6465L13.3536 7.64648L12.6464 8.35359Z" fill="white"/>
</svg>
