<svg width="8" height="8" viewBox="0 0 8 8" fill="none" xmlns="http://www.w3.org/2000/svg">
<path d="M6.69331 3.8065L5.34664 1.92317C5.23331 1.76317 5.04997 1.6665 4.85331 1.6665C4.35664 1.6665 4.06997 2.2265 4.35664 2.62984L5.33331 3.99984L4.35664 5.36984C4.06664 5.77317 4.35664 6.33317 4.85331 6.33317C5.04997 6.33317 5.23664 6.2365 5.34997 6.0765L6.69664 4.19317C6.77664 4.0765 6.77664 3.92317 6.69331 3.8065Z" fill="#929292"/>
<path d="M4.3603 3.8065L3.01696 1.92317C2.9003 1.76317 2.71696 1.6665 2.5203 1.6665C2.02363 1.6665 1.73363 2.2265 2.02363 2.62984L3.0003 3.99984L2.02363 5.36984C1.73363 5.77317 2.02363 6.33317 2.5203 6.33317C2.71696 6.33317 2.90363 6.2365 3.01696 6.0765L4.36363 4.19317C4.44363 4.0765 4.44363 3.92317 4.3603 3.8065Z" fill="#929292"/>
</svg>
