<svg width="20" height="20" viewBox="0 0 20 20" fill="none" xmlns="http://www.w3.org/2000/svg">
<path fill-rule="evenodd" clip-rule="evenodd" d="M10 0H5.7971C4.95391 0 4.21085 0.20023 3.6511 0.351062C3.53738 0.381706 3.43123 0.41031 3.33334 0.434783C2.6087 0.724638 2.02899 1.01449 1.59421 1.5942C1.0145 2.17391 0.724644 2.75362 0.43479 3.33333L0.434787 3.33333C0.144932 3.91304 0 4.78261 0 5.7971V10V14.2029C0 15.0461 0.200232 15.7891 0.351064 16.3489C0.381708 16.4626 0.410314 16.5688 0.434787 16.6667C0.724642 17.3913 1.0145 17.971 1.59421 18.4058C2.17392 18.8406 2.75363 19.2754 3.33334 19.5652C3.91305 19.8551 4.78261 20 5.7971 20H10H14.2029C15.0461 20 15.7892 19.7998 16.3489 19.6489C16.4626 19.6183 16.5688 19.5897 16.6667 19.5652C17.3913 19.2754 17.971 18.9855 18.4058 18.4058C18.8406 17.8261 19.2754 17.2464 19.5652 16.6667C19.8551 16.087 20 15.2174 20 14.2029V10V5.7971C20 4.95392 19.7998 4.21085 19.6489 3.6511C19.6183 3.53738 19.5897 3.43122 19.5652 3.33333C19.2754 2.6087 18.9855 2.02899 18.4058 1.5942C17.8261 1.0145 17.2464 0.724643 16.6667 0.434791L16.6667 0.434783C16.087 0.144928 15.2174 0 14.2029 0H10ZM16.666 4.78247C16.666 5.5071 16.0863 5.94189 15.5066 5.94189C14.9269 5.94189 14.3472 5.36218 14.3472 4.78247C14.3472 4.05783 14.9269 3.62305 15.5066 3.62305C16.0863 3.62305 16.666 4.05783 16.666 4.78247ZM9.99961 13.478C8.11556 13.478 6.66628 12.0287 6.66628 10.1446C6.66628 8.26058 8.11556 6.81131 9.99961 6.81131C11.8837 6.81131 13.333 8.26058 13.333 10.1446C13.333 12.0287 11.8837 13.478 9.99961 13.478ZM9.99961 4.92725C7.10106 4.92725 4.78223 7.24609 4.78223 10.1446C4.78223 13.0432 7.10106 15.362 9.99961 15.362C12.8982 15.362 15.217 13.0432 15.217 10.1446C15.217 7.24609 12.8982 4.92725 9.99961 4.92725Z" fill="#F2F2F2"/>
</svg>
