<svg width="23" height="23" viewBox="0 0 23 23" fill="none" xmlns="http://www.w3.org/2000/svg">
<path d="M22.9279 14.0407L18.8827 6.01017C18.8059 5.8577 18.6717 5.73763 18.5081 5.67901L13.5211 3.86385C13.5884 1.92548 11.1219 0.995514 9.9051 2.54774C9.8976 2.545 4.91942 0.733126 4.92467 0.735058C4.60568 0.61934 4.24672 0.760484 4.09317 1.06541L0.0720517 9.05029C0.0195382 9.15464 -0.00296757 9.27701 0.000311712 9.3748C0.0119464 11.9671 2.12416 14.0724 4.71907 14.0724C7.31473 14.0724 9.42744 11.9658 9.43787 9.37251C9.44092 9.2718 9.41684 9.14988 9.36464 9.04737L6.07215 2.58678L9.47708 3.82608C9.48553 4.35422 9.69459 4.84957 10.069 5.22395C10.2899 5.44478 10.5495 5.60372 10.8262 5.70093V18.1597H10.7066C8.79216 18.1597 7.23464 19.7172 7.23464 21.6316C7.23464 22.0037 7.53633 22.3054 7.90846 22.3054H15.0914C15.4636 22.3054 15.7653 22.0037 15.7653 21.6316C15.7653 19.7172 14.2078 18.1597 12.2933 18.1597H12.1737V5.70097C12.5004 5.58615 12.7925 5.39011 13.0282 5.11865L17.3382 6.68732L13.6361 14.0409C13.5834 14.1455 13.5612 14.2677 13.5644 14.3655C13.5761 16.957 15.6878 19.0618 18.2821 19.0618C20.8764 19.0618 22.988 16.9569 22.9997 14.3653C23.0034 14.2544 22.9758 14.1357 22.9279 14.0407ZM4.69858 2.8595L7.66458 8.67951H1.76762L4.69858 2.8595ZM4.71907 12.7247C3.09074 12.7247 1.72836 11.5644 1.41535 10.0272H8.02279C7.70977 11.5644 6.34739 12.7247 4.71907 12.7247ZM12.2934 19.5073C13.2293 19.5073 14.0258 20.1157 14.3081 20.9578H8.69185C8.97423 20.1157 9.77074 19.5073 10.7066 19.5073H12.2934ZM11.0219 4.27102C10.7583 4.00742 10.7583 3.57851 11.0219 3.31491C11.4451 2.8917 12.1761 3.19232 12.1761 3.79297C12.1761 4.39384 11.445 4.69405 11.0219 4.27102ZM18.2811 7.81144L21.2322 13.67H15.3316L18.2811 7.81144ZM18.2821 17.7142C16.6544 17.7142 15.2925 16.5543 14.9795 15.0177H21.5846C21.2716 16.5543 19.9097 17.7142 18.2821 17.7142Z" fill="#569898"/>
</svg>
