<svg width="20" height="20" viewBox="0 0 20 20" fill="none" xmlns="http://www.w3.org/2000/svg">
<path fill-rule="evenodd" clip-rule="evenodd" d="M14.6246 8.31232C14.6246 11.7985 11.7985 14.6246 8.31232 14.6246C4.82612 14.6246 2 11.7985 2 8.31232C2 4.82612 4.82612 2 8.31232 2C11.7985 2 14.6246 4.82612 14.6246 8.31232ZM13.4403 14.8548C12.0278 15.9635 10.2473 16.6246 8.31232 16.6246C3.72155 16.6246 0 12.9031 0 8.31232C0 3.72155 3.72155 0 8.31232 0C12.9031 0 16.6246 3.72155 16.6246 8.31232C16.6246 10.2474 15.9634 12.028 14.8546 13.4406L19.8252 18.4113L18.411 19.8255L13.4403 14.8548Z" fill="#569898"/>
</svg>
