<svg width="51" height="51" viewBox="0 0 51 51" fill="none" xmlns="http://www.w3.org/2000/svg">
<g clip-path="url(#clip0)">
<path d="M46.8314 12.8917C46.7714 11.4536 46.7714 10.1354 46.7714 8.8173C46.7714 8.15544 46.2349 7.61893 45.573 7.61893C37.6038 7.61893 31.4921 5.28205 26.3392 0.368818C25.9141 -0.0945208 25.1939 -0.125487 24.7307 0.299662C24.7066 0.321682 24.6835 0.344849 24.6615 0.368818C19.5085 5.28216 13.3969 7.61893 5.42765 7.61893C4.76579 7.61893 4.22928 8.15544 4.22928 8.8173C4.22928 10.1355 4.22928 11.4537 4.16941 12.8318C3.92971 25.8341 3.57028 43.57 25.081 51H25.86C47.4305 43.63 47.071 25.8341 46.8314 12.8917ZM25.5003 48.6032C8.00412 42.3717 6.4462 28.8301 6.50618 16.8464L33.889 44.2891C31.3189 46.13 28.4925 47.5835 25.5003 48.6032ZM35.8063 42.7911L6.56605 13.5508V12.8917C6.56605 11.933 6.62591 10.9144 6.62591 10.0156C9.65172 9.92645 12.653 9.44304 15.5538 8.57749L41.6783 34.702C40.3241 37.7885 38.3213 40.5473 35.8063 42.7911ZM42.5771 32.2454L18.0105 7.6788C20.7693 6.5068 23.3036 4.8647 25.5003 2.82543C30.6534 7.49908 36.7051 9.77598 44.3746 10.0157C44.3746 10.9744 44.4345 11.933 44.4345 12.8918C44.5545 19.1233 44.6742 26.014 42.5771 32.2454Z" fill="white"/>
</g>
<defs>
<clipPath id="clip0">
<rect width="51" height="51" fill="white"/>
</clipPath>
</defs>
</svg>
