<svg width="20" height="20" viewBox="0 0 20 20" fill="none" xmlns="http://www.w3.org/2000/svg">
<path d="M5.75 15.3333C4.69583 15.3333 3.84292 16.1958 3.84292 17.25C3.84292 18.3042 4.69583 19.1667 5.75 19.1667C6.80417 19.1667 7.66667 18.3042 7.66667 17.25C7.66667 16.1958 6.80417 15.3333 5.75 15.3333ZM0 0V1.91667H1.91667L5.36667 9.19042L4.07292 11.5383C3.91958 11.8067 3.83333 12.1229 3.83333 12.4583C3.83333 13.5125 4.69583 14.375 5.75 14.375H17.25V12.4583H6.1525C6.01833 12.4583 5.91292 12.3529 5.91292 12.2188L5.94167 12.1038L6.80417 10.5417H13.9438C14.6625 10.5417 15.295 10.1488 15.6208 9.55458L19.0517 3.335C19.1307 3.18875 19.1705 3.02448 19.1671 2.85826C19.1637 2.69203 19.1173 2.52953 19.0323 2.38662C18.9473 2.24372 18.8268 2.12529 18.6823 2.04292C18.5379 1.96055 18.3746 1.91705 18.2083 1.91667H4.03458L3.13375 0H0ZM15.3333 15.3333C14.2792 15.3333 13.4263 16.1958 13.4263 17.25C13.4263 18.3042 14.2792 19.1667 15.3333 19.1667C16.3875 19.1667 17.25 18.3042 17.25 17.25C17.25 16.1958 16.3875 15.3333 15.3333 15.3333Z" fill="white"/>
</svg>
