<svg width="26" height="15" viewBox="0 0 26 15" fill="none" xmlns="http://www.w3.org/2000/svg">
<path d="M24.8183 14.9412L21.3462 14.9862C21.3462 14.9862 20.6043 15.1362 19.6101 14.4463C18.3044 13.5464 17.0877 11.2067 16.1232 11.5066C15.1587 11.8216 15.1884 13.9214 15.1884 13.9214C15.1884 13.9214 15.1884 14.3713 14.9806 14.6113C14.7432 14.8812 14.2684 14.9412 14.2684 14.9412H12.7252C12.7252 14.9412 9.29764 15.1512 6.27067 11.9716C2.97661 8.507 0.0683375 1.62282 0.0683375 1.62282C0.0683375 1.62282 -0.0948818 1.17288 0.0831756 0.947905C0.290909 0.707934 0.839919 0.692935 0.839919 0.692935L4.54945 0.662939C4.54945 0.662939 4.90556 0.722932 5.14297 0.90291C5.36554 1.06789 5.48425 1.35286 5.48425 1.35286C5.48425 1.35286 6.07777 2.88267 6.87903 4.27751C8.43703 6.99218 9.14926 7.57711 9.68343 7.29215C10.455 6.8722 10.2176 3.45261 10.2176 3.45261C10.2176 3.45261 10.2324 2.22275 9.83181 1.66782C9.52021 1.23287 8.94153 1.11289 8.67444 1.08289C8.46671 1.05289 8.80798 0.557951 9.25313 0.347977C9.92084 0.018016 11.1079 -0.0119805 12.5027 0.00301775C13.5859 0.018016 13.8975 0.0780088 14.3278 0.182996C15.6038 0.497959 15.1735 1.69782 15.1735 4.59247C15.1735 5.52236 15.0103 6.8272 15.678 7.26215C15.96 7.44213 16.6573 7.29215 18.3934 4.3075C19.2243 2.89767 19.8327 1.21787 19.8327 1.21787C19.8327 1.21787 19.9662 0.917908 20.174 0.797923C20.3817 0.662939 20.6785 0.707934 20.6785 0.707934L24.5957 0.677937C24.5957 0.677937 25.7679 0.527955 25.9608 1.06789C26.1537 1.63782 25.5157 2.94267 23.928 5.10241C21.3017 8.64199 21.0198 8.31203 23.1861 10.3518C25.2635 12.3015 25.6938 13.2614 25.7679 13.3664C26.6286 14.8212 24.8183 14.9412 24.8183 14.9412Z" fill="#F2F2F2"/>
</svg>
