<svg width="24" height="24" viewBox="0 0 24 24" fill="none" xmlns="http://www.w3.org/2000/svg">
<path d="M18.75 18.375C18.1298 18.375 17.625 18.8798 17.625 19.5C17.625 20.1202 18.1298 20.625 18.75 20.625C19.3702 20.625 19.875 20.1202 19.875 19.5C19.875 18.8798 19.3702 18.375 18.75 18.375ZM18.75 19.875C18.543 19.875 18.375 19.707 18.375 19.5C18.375 19.293 18.543 19.125 18.75 19.125C18.957 19.125 19.125 19.293 19.125 19.5C19.125 19.707 18.957 19.875 18.75 19.875Z" fill="white"/>
<path d="M6.75 18.375C6.12975 18.375 5.625 18.8798 5.625 19.5C5.625 20.1202 6.12975 20.625 6.75 20.625C7.37025 20.625 7.875 20.1202 7.875 19.5C7.875 18.8798 7.37025 18.375 6.75 18.375ZM6.75 19.875C6.543 19.875 6.375 19.707 6.375 19.5C6.375 19.293 6.543 19.125 6.75 19.125C6.957 19.125 7.125 19.293 7.125 19.5C7.125 19.707 6.957 19.875 6.75 19.875Z" fill="white"/>
<path d="M22.5885 13.5L22.0882 13.2499L21.5786 10.1921C21.4275 9.28388 20.6494 8.625 19.7291 8.625H15.75C15.1399 8.625 14.6021 8.92238 14.2598 9.375H13.125V5.625H10.875V1.875H5.625V5.625H3.375V9.375H1.125V13.125C0.711375 13.125 0.375 13.4614 0.375 13.875V14.625C0.375 15.0386 0.711375 15.375 1.125 15.375V18.75C1.125 19.3703 1.62975 19.875 2.25 19.875H4.155C4.338 21.1448 5.43038 22.125 6.75 22.125C8.06962 22.125 9.162 21.1448 9.345 19.875H16.155C16.338 21.1448 17.4304 22.125 18.75 22.125C20.0696 22.125 21.162 21.1448 21.345 19.875H22.5C23.1203 19.875 23.625 19.3703 23.625 18.75V15.177C23.625 14.4622 23.2279 13.8202 22.5885 13.5ZM22.875 17.0182L22.125 16.6432V16.125H22.875V17.0182ZM7.875 10.125H8.625V10.875H7.875V10.125ZM9.375 11.625V10.125H10.125V13.125H6.375V10.125H7.125V11.625H9.375ZM13.875 13.125H10.875V10.125H11.625V11.625H13.875V13.125ZM13.875 10.5V10.875H12.375V10.125H13.9129C13.8881 10.2461 13.875 10.3717 13.875 10.5ZM12.375 9.375H10.875H10.125H8.625V6.375H9.375V7.875H11.625V6.375H12.375V9.375ZM10.125 6.375H10.875V7.125H10.125V6.375ZM7.875 2.625H8.625V3.375H7.875V2.625ZM6.375 2.625H7.125V4.125H9.375V2.625H10.125V5.625H8.625H7.875H6.375V2.625ZM5.625 6.375H6.375V7.125H5.625V6.375ZM4.125 6.375H4.875V7.875H7.125V6.375H7.875V9.375H6.375H5.625H4.125V6.375ZM3.375 10.125H4.125V10.875H3.375V10.125ZM1.875 10.125H2.625V11.625H4.875V10.125H5.625V13.125H1.875V10.125ZM1.125 13.875H13.875V14.625H1.125V13.875ZM1.875 16.875H3.26962L3.08212 17.625H1.875V16.875ZM1.875 18.75V18.375H3.66788L4.23038 16.125H1.875V15.375H13.875V19.125H9.345C9.162 17.8553 8.06962 16.875 6.75 16.875C5.43038 16.875 4.338 17.8553 4.155 19.125H2.25C2.043 19.125 1.875 18.957 1.875 18.75ZM6.75 21.375C5.71613 21.375 4.875 20.5339 4.875 19.5C4.875 18.4661 5.71613 17.625 6.75 17.625C7.78387 17.625 8.625 18.4661 8.625 19.5C8.625 20.5339 7.78387 21.375 6.75 21.375ZM18.375 13.125H19.875V13.875H19.5H19.125C18.7114 13.875 18.375 13.5386 18.375 13.125ZM18.375 12.375C17.9614 12.375 17.625 12.7114 17.625 13.125C17.625 13.3995 17.7045 13.6534 17.8335 13.875H16.125V10.875H19.5173L19.7981 12.375H18.375ZM16.125 14.625H19.125H19.5H19.875V17.1319C19.5334 16.9691 19.1528 16.875 18.75 16.875C17.4304 16.875 16.338 17.8553 16.155 19.125H16.125V14.625ZM18.75 21.375C17.7161 21.375 16.875 20.5339 16.875 19.5C16.875 18.4661 17.7161 17.625 18.75 17.625C19.7839 17.625 20.625 18.4661 20.625 19.5C20.625 20.5339 19.7839 21.375 18.75 21.375ZM22.5 19.125H21.345C21.264 18.5618 21.0053 18.0555 20.625 17.6666V12.75L20.2549 10.7378C20.1889 10.383 19.8787 10.125 19.5176 10.125H16.125C15.7114 10.125 15.375 10.4614 15.375 10.875V19.125H14.625V10.5C14.625 9.87975 15.1298 9.375 15.75 9.375H19.7291C20.2815 9.375 20.748 9.77063 20.8387 10.3151L21.4114 13.7501L22.2529 14.1709C22.6365 14.3629 22.875 14.7484 22.875 15.177V15.375H21.375V17.1068L22.875 17.8568V18.75C22.875 18.957 22.707 19.125 22.5 19.125Z" fill="white"/>
</svg>
