<svg width="24" height="24" viewBox="0 0 24 24" fill="none" xmlns="http://www.w3.org/2000/svg">
<path d="M10.5 19.5C9.87975 19.5 9.375 20.0048 9.375 20.625C9.375 21.2452 9.87975 21.75 10.5 21.75C11.1202 21.75 11.625 21.2452 11.625 20.625C11.625 20.0048 11.1202 19.5 10.5 19.5ZM10.5 21C10.2934 21 10.125 20.8316 10.125 20.625C10.125 20.4184 10.2934 20.25 10.5 20.25C10.7066 20.25 10.875 20.4184 10.875 20.625C10.875 20.8316 10.7066 21 10.5 21Z" fill="white"/>
<path d="M10.985 10.2349L7.50009 13.7197L3.64022 9.85987L2.89022 9.10987C2.74359 8.96325 2.50659 8.96325 2.35997 9.10987L0.859969 10.6099C0.713344 10.7565 0.713344 10.9935 0.859969 11.1401L1.60997 11.8901C1.68309 11.9633 1.77909 12 1.87509 12C1.97109 12 2.06709 11.9633 2.14022 11.8901L3.37509 10.6552L9.21984 16.5L8.35997 17.3599C8.23622 17.4832 8.21447 17.6756 8.30709 17.8237L8.80659 18.6229C8.23772 19.1047 7.87509 19.8229 7.87509 20.625H3.37509V13.125H2.62509V21C2.62509 21.207 2.79309 21.375 3.00009 21.375H7.98572C8.30934 22.458 9.31359 23.25 10.5001 23.25C11.3022 23.25 12.0203 22.8874 12.5022 22.3185L13.3013 22.818C13.3625 22.8563 13.4315 22.875 13.5001 22.875C13.5972 22.875 13.6932 22.8375 13.7656 22.7651L14.8906 21.6401L15.1553 21.375H21.0001C21.2071 21.375 21.3751 21.207 21.3751 21V8.25H22.8751C23.0266 8.25 23.1635 8.1585 23.2216 8.01862C23.2797 7.87837 23.2475 7.71712 23.1402 7.60987L16.3902 0.859875C16.3171 0.78675 16.2211 0.75 16.1251 0.75H8.62509C8.52572 0.75 8.43009 0.789375 8.35997 0.859875L6.96984 2.25H5.62509C5.41809 2.25 5.25009 2.418 5.25009 2.625V3.96975L1.60997 7.60987C1.50272 7.71712 1.47047 7.87837 1.52859 8.01862C1.58672 8.1585 1.72359 8.25 1.87509 8.25H9.37509H10.8751V9.375H11.6251V7.875C11.6251 7.668 11.4571 7.5 11.2501 7.5H10.2803L16.1251 1.65525L21.9698 7.5H21.0001C20.7931 7.5 20.6251 7.668 20.6251 7.875V20.625H15.9053L20.1402 16.3901L19.61 15.8599L18.7501 16.7197L15.2652 13.2349C15.1186 13.0883 14.8816 13.0883 14.735 13.2349L14.6251 13.3447L11.5152 10.2349C11.3686 10.0883 11.1316 10.0883 10.985 10.2349ZM1.87509 11.0948L1.65534 10.875L2.62509 9.90525L2.84484 10.125L1.87509 11.0948ZM8.25009 3H9.00009V3.96975L8.25009 4.71975V3ZM6.00009 3H7.50009V5.25H6.00009V3ZM9.21984 7.5H2.78034L5.25009 5.03025V5.625C5.25009 5.832 5.41809 6 5.62509 6H7.87509C7.97859 6 8.07234 5.958 8.14022 5.89012L9.64022 4.39012C9.71072 4.32 9.75009 4.22438 9.75009 4.125V2.625C9.75009 2.418 9.58209 2.25 9.37509 2.25H8.03034L8.78034 1.5H15.2198L9.21984 7.5ZM9.10134 17.6794L9.75009 17.0306L10.7315 18.012C10.655 18.0049 10.5781 18 10.5001 18C10.1236 18 9.76622 18.081 9.44222 18.2246L9.10134 17.6794ZM10.5001 22.5C9.46622 22.5 8.62509 21.6589 8.62509 20.625C8.62509 19.5911 9.46622 18.75 10.5001 18.75C11.534 18.75 12.3751 19.5911 12.3751 20.625C12.3751 21.6589 11.534 22.5 10.5001 22.5ZM13.4457 22.0238L12.9005 21.6829C13.0441 21.3589 13.1251 21.0015 13.1251 20.625C13.1251 20.547 13.1202 20.4701 13.1135 20.3936L14.0948 21.375L13.4457 22.0238ZM18.2198 17.25L14.6251 20.8447L11.4053 17.625L12.3751 16.6553L13.985 18.2651C14.0581 18.3383 14.1541 18.375 14.2501 18.375C14.3461 18.375 14.4421 18.3383 14.5152 18.2651L15.6402 17.1401C15.7868 16.9935 15.7868 16.7565 15.6402 16.6099L14.0303 15L15.0001 14.0303L18.2198 17.25ZM13.5001 15.5303L14.8448 16.875L14.2501 17.4697L12.9053 16.125L13.5001 15.5303ZM10.8751 17.0947L8.03034 14.25L11.2501 11.0302L14.0948 13.875L10.8751 17.0947Z" fill="white"/>
<path d="M19.125 7.875C19.125 6.22088 17.7791 4.875 16.125 4.875C14.4709 4.875 13.125 6.22088 13.125 7.875C13.125 9.52912 14.4709 10.875 16.125 10.875C17.7791 10.875 19.125 9.52912 19.125 7.875ZM16.5 10.0912V8.25H18.3412C18.1823 9.19012 17.4401 9.93225 16.5 10.0912ZM18.3412 7.5H16.5V5.65875C17.4401 5.81775 18.1823 6.55988 18.3412 7.5ZM15.75 5.65875V7.5H13.9088C14.0678 6.55988 14.8099 5.81775 15.75 5.65875ZM13.9088 8.25H15.75V10.0912C14.8099 9.93225 14.0678 9.19012 13.9088 8.25Z" fill="white"/>
</svg>
