<svg width="24" height="20" viewBox="0 0 24 20" fill="none" xmlns="http://www.w3.org/2000/svg">
<path d="M22.7992 6.15445H20.4961L19.8496 1.27679C19.7571 0.621898 19.1557 0.162741 18.4995 0.246097L1.04266 2.55964C0.7263 2.60207 0.439808 2.76868 0.246529 3.02275C0.0523992 3.27512 -0.0323575 3.59479 0.0111716 3.91015L1.48416 15.0188C1.56241 15.617 2.0724 16.0643 2.67575 16.0639C2.72744 16.0638 2.77902 16.0603 2.83026 16.0535L3.98663 15.901V18.5627C3.98663 19.2259 4.52424 19.7635 5.18743 19.7635H22.7992C23.4624 19.7635 24 19.2259 24 18.5627V7.35525C24 6.69206 23.4624 6.15445 22.7992 6.15445ZM19.6887 6.15445H16.563L19.6347 5.74738L19.6887 6.15445ZM0.803702 3.80207C0.789642 3.6976 0.818161 3.59183 0.882955 3.50868C0.947348 3.42307 1.04336 3.36683 1.14953 3.35257L18.6032 1.03983C18.8227 1.01201 19.024 1.16511 19.0559 1.38406L19.214 2.57606L0.961807 4.99647L0.803702 3.80207ZM3.98663 15.0936L2.72739 15.2597C2.50824 15.2889 2.30701 15.1348 2.27789 14.9157C2.27789 14.9156 2.27789 14.9156 2.27789 14.9155L1.38489 8.16779L3.98663 7.82396V15.0936ZM4.03947 7.00982L1.27762 7.37406L1.06748 5.7906L19.3197 3.36979L19.4398 4.2872L19.5286 4.95365L10.471 6.15445H5.18743C4.65808 6.1554 4.19177 6.50283 4.03947 7.00982ZM23.1995 18.5627C23.1995 18.7838 23.0203 18.963 22.7992 18.963H5.18743C4.96639 18.963 4.78717 18.7838 4.78717 18.5627V7.36726C4.78717 7.36326 4.78917 7.35925 4.78917 7.35525C4.78917 7.1342 4.96839 6.95498 5.18944 6.95498H22.7992C23.0203 6.95498 23.1995 7.1342 23.1995 7.35525V18.5627Z" fill="white"/>
<path d="M17.5737 12.1679C17.7346 12.0491 17.8768 11.9069 17.9956 11.746C18.6537 12.6319 19.9053 12.8165 20.7911 12.1584C21.677 11.5003 21.8616 10.2486 21.2035 9.3628C20.8259 8.85457 20.2298 8.55537 19.5966 8.55627C18.9642 8.55802 18.3702 8.85967 17.9956 9.36921C17.3392 8.47987 16.0862 8.29099 15.1968 8.94733C14.3075 9.60366 14.1186 10.8566 14.775 11.746C15.4313 12.6353 16.6843 12.8243 17.5737 12.1679ZM19.5966 9.3568C20.2598 9.3568 20.7974 9.89441 20.7974 10.5576C20.7974 11.2208 20.2598 11.7584 19.5966 11.7584C18.9334 11.7584 18.3958 11.2208 18.3958 10.5576C18.3958 9.89441 18.9334 9.3568 19.5966 9.3568ZM16.3945 9.3568C17.0577 9.3568 17.5953 9.89441 17.5953 10.5576C17.5953 11.2208 17.0577 11.7584 16.3945 11.7584C15.7313 11.7584 15.1937 11.2208 15.1937 10.5576C15.1937 9.89441 15.7313 9.3568 16.3945 9.3568Z" fill="white"/>
<path d="M7.18823 8.95654H6.3877V9.75708H7.18823V8.95654Z" fill="white"/>
<path d="M12.7925 8.95654H7.98926V9.75708H12.7925V8.95654Z" fill="white"/>
<path d="M12.792 10.5576H6.3877V11.3582H12.792V10.5576Z" fill="white"/>
<path d="M21.1976 14.1597H6.78796C6.56692 14.1597 6.3877 14.3389 6.3877 14.5599V16.9615C6.3877 17.1826 6.56692 17.3618 6.78796 17.3618H21.1976C21.4186 17.3618 21.5979 17.1826 21.5979 16.9615V14.5599C21.5979 14.3389 21.4187 14.1597 21.1976 14.1597ZM20.7973 16.5613H7.18823V14.9602H20.7973V16.5613Z" fill="white"/>
</svg>
