<svg width="24" height="16" viewBox="0 0 24 16" fill="none" xmlns="http://www.w3.org/2000/svg">
<path d="M22.3199 6.84516L21.6984 4.35915C21.8683 4.32305 21.9958 4.1723 21.9958 3.9917V3.59087C21.9958 2.72059 21.2878 2.01259 20.4175 2.01259H17.5867V1.1858C17.5867 0.757555 17.2383 0.40918 16.81 0.40918H2.37994C1.95169 0.40918 1.60331 0.757555 1.60331 1.1858V8.00002C1.60331 8.20754 1.77155 8.37582 1.97911 8.37582C2.18663 8.37582 2.35491 8.20759 2.35491 8.00002V1.1858C2.35491 1.17198 2.36611 1.16077 2.37994 1.16077H16.81C16.8238 1.16077 16.835 1.17198 16.835 1.1858V8.00012C16.835 8.20763 17.0033 8.37591 17.2108 8.37591C17.4183 8.37591 17.5866 8.20768 17.5866 8.00012V7.57412H22.0195C22.0199 7.57412 22.0202 7.57421 22.0205 7.57421C22.0209 7.57421 22.0212 7.57416 22.0215 7.57416C22.567 7.57454 23.0302 7.93257 23.1893 8.42593H22.0208C21.8133 8.42593 21.645 8.59416 21.645 8.80173V9.60338C21.645 10.2526 22.1732 10.7808 22.8225 10.7808H23.2484V12.4343H22.2658C21.943 11.5022 21.057 10.8309 20.0166 10.8309C18.9762 10.8309 18.0902 11.5022 17.7675 12.4343H17.5865V9.60334C17.5865 9.39582 17.4183 9.22754 17.2107 9.22754C17.0032 9.22754 16.8349 9.39577 16.8349 9.60334V12.4342H9.0383C8.71552 11.5021 7.82953 10.8308 6.78914 10.8308C5.74875 10.8308 4.86272 11.5021 4.53998 12.4342H2.37994C2.36611 12.4342 2.35491 12.423 2.35491 12.4091V11.5824H3.9833C4.19081 11.5824 4.35909 11.4142 4.35909 11.2066C4.35909 10.999 4.19086 10.8308 3.9833 10.8308H0.375797C0.168281 10.8308 0 10.999 0 11.2066C0 11.4142 0.168234 11.5824 0.375797 11.5824H1.60336V12.4091C1.60336 12.8374 1.95173 13.1858 2.37998 13.1858H4.40986C4.40977 13.1941 4.4092 13.2024 4.4092 13.2108C4.4092 14.5231 5.47688 15.5907 6.78914 15.5907C8.10141 15.5907 9.16908 14.5231 9.16908 13.2108C9.16908 13.2024 9.16852 13.1941 9.16842 13.1858H17.6373C17.6372 13.1941 17.6367 13.2024 17.6367 13.2108C17.6367 14.5231 18.7043 15.5907 20.0166 15.5907C21.3289 15.5907 22.3965 14.5231 22.3965 13.2108C22.3965 13.2024 22.396 13.1941 22.3959 13.1858H23.6242C23.8317 13.1858 24 13.0175 24 12.81V8.80163C24 7.81201 23.2698 6.98977 22.3199 6.84516ZM17.5867 2.76413H20.4175C20.8734 2.76413 21.2443 3.13501 21.2443 3.59087V3.6159H17.5867V2.76413ZM17.5867 6.82257V4.36745H20.9258L21.5396 6.82257H17.5867ZM6.78914 14.8393C5.89125 14.8393 5.16075 14.1088 5.16075 13.2109C5.16075 12.3129 5.89125 11.5825 6.78914 11.5825C7.68703 11.5825 8.41753 12.3129 8.41753 13.2109C8.41753 14.1088 7.68703 14.8393 6.78914 14.8393ZM20.0167 14.8393C19.1188 14.8393 18.3883 14.1088 18.3883 13.2109C18.3883 12.3129 19.1188 11.5825 20.0167 11.5825C20.9146 11.5825 21.6451 12.3129 21.6451 13.2109C21.6451 14.1088 20.9146 14.8393 20.0167 14.8393ZM23.2485 10.0292H22.8225C22.5877 10.0292 22.3966 9.83818 22.3966 9.60334V9.17743H23.2484V10.0292H23.2485Z" fill="white"/>
</svg>
